<?xml version="1.0" standalone="no"?>
<!DOCTYPE svg PUBLIC "-//W3C//DTD SVG 20010904//EN"
 "http://www.w3.org/TR/2001/REC-SVG-20010904/DTD/svg10.dtd">
<svg version="1.0" xmlns="http://www.w3.org/2000/svg"
 width="141.000000pt" height="141.000000pt" viewBox="0 0 141.000000 141.000000"
 preserveAspectRatio="xMidYMid meet">
<metadata>
Created by potrace 1.11, written by Peter Selinger 2001-2013
</metadata>
<g transform="translate(0.000000,141.000000) scale(0.100000,-0.100000)"
fill="#000000" stroke="none">
<path d="M560 1324 c-177 -38 -349 -172 -429 -334 -69 -141 -85 -262 -55 -407
51 -251 230 -432 485 -493 101 -24 146 -25 247 -4 193 39 366 171 451 344 68
139 85 261 56 402 -70 342 -414 566 -755 492z m272 -204 c276 -85 389 -434
218 -673 -173 -241 -544 -234 -708 13 -59 87 -75 150 -70 269 3 82 8 106 35
164 52 110 151 196 268 233 62 20 183 17 257 -6z"/>
<path d="M657 993 c-4 -3 -7 -19 -7 -35 0 -27 -2 -28 -46 -28 -41 0 -46 3 -55
30 -10 26 -16 30 -50 30 -38 0 -39 -1 -39 -36 0 -27 7 -43 30 -64 35 -33 36
-52 17 -260 l-12 -125 -40 -5 c-34 -4 -40 -9 -43 -30 -2 -19 4 -30 27 -43 26
-15 59 -17 278 -17 136 0 254 4 261 9 8 5 12 22 10 42 -3 31 -6 34 -40 37 -33
3 -38 7 -43 35 -19 120 -45 290 -45 302 0 8 14 29 31 46 27 27 30 36 24 68 -4
20 -8 39 -10 42 -6 9 -65 -2 -66 -12 -1 -5 -2 -15 -3 -21 -1 -9 -19 -13 -56
-13 -53 0 -55 1 -58 28 -3 22 -8 27 -31 27 -15 0 -31 -3 -34 -7z m-17 -228 c0
-14 -6 -25 -13 -25 -21 0 -27 11 -16 31 14 27 29 23 29 -6z m180 -190 c0 -28
-4 -35 -19 -35 -27 0 -33 14 -20 44 18 38 39 33 39 -9z"/>
</g>
</svg>
